<svg style="display: none;" xmlns="http://www.w3.org/2000/svg" xmlns:xlink="http://www.w3.org/1999/xlink">
    <symbol id="icon-tw" class="icon icon--socials" viewBox="0 0 48 48">
        <path d="M39 14.8505C37.8742 15.3361 36.6807 15.6523 35.4593 15.7885C36.7535 15.0484 37.7182 13.8569 38.1626 12.45C36.9578 13.1571 35.6369 13.6521 34.2593 13.9125C33.6946 13.3207 33.0149 12.8466 32.2605 12.5182C31.5062 12.1899 30.6925 12.0139 29.8678 12.0008C29.0431 11.9877 28.2241 12.1377 27.4594 12.4419C26.6947 12.7461 25.9998 13.1984 25.4159 13.7719C24.8346 14.3272 24.3751 14.9938 24.0656 15.7306C23.7562 16.4675 23.6033 17.2589 23.6165 18.0561C23.6193 18.522 23.6714 18.9863 23.7717 19.4416C21.3043 19.3305 18.8904 18.6953 16.6957 17.5798C14.5297 16.4906 12.6192 14.9674 11.087 13.108C10.5319 14.0333 10.2425 15.0896 10.2496 16.1641C10.242 17.1738 10.4978 18.1686 10.9924 19.0532C11.4699 19.9217 12.1562 20.6619 12.9913 21.2091C12.0155 21.1751 11.0622 20.9109 10.2117 20.4387V20.5138C10.1922 21.9217 10.6889 23.2894 11.6107 24.366C12.5029 25.4483 13.7527 26.1881 15.1422 26.4564C14.614 26.5932 14.0702 26.6624 13.5241 26.6625C13.1369 26.6592 12.7504 26.6277 12.3678 26.5681C12.7627 27.7703 13.529 28.8212 14.5597 29.574C15.5904 30.3269 16.8342 30.7441 18.1174 30.7676C15.9511 32.4696 13.2545 33.3835 10.483 33.355C9.98768 33.358 9.49254 33.3333 9 33.2812C11.8079 35.0795 15.0912 36.0248 18.4409 35.9995C20.5343 36.0143 22.6143 35.6689 24.587 34.9787C26.3795 34.3672 28.0441 33.4395 29.4991 32.2411C30.8564 31.0984 32.0394 29.7693 33.0117 28.2945C33.9722 26.8558 34.7129 25.286 35.2102 23.6354C35.6872 22.0557 35.9312 20.4168 35.9348 18.7688C35.9348 18.4187 35.9285 18.1561 35.9159 17.981C37.1199 17.1207 38.1634 16.0615 39 14.8505Z" fill="currentColor "/>
    </symbol>
    <symbol id="icon-inst" class="icon icon--socials" viewBox="0 0 48 48">
        <path d="M35.8157 12.9348C35.526 12.6342 35.1777 12.3962 34.7923 12.2355C34.407 12.0747 33.9928 11.9947 33.5753 12.0003H15.1747C14.7573 11.9948 14.3432 12.0749 13.958 12.2357C13.5728 12.3964 13.2246 12.6344 12.9348 12.9348C12.6343 13.2245 12.3963 13.5727 12.2355 13.9579C12.0748 14.3432 11.9947 14.7573 12.0003 15.1747V33.5753C11.9947 33.9927 12.0748 34.4068 12.2355 34.7921C12.3963 35.1773 12.6343 35.5255 12.9348 35.8152C13.2245 36.1157 13.5727 36.3536 13.958 36.5144C14.3432 36.6751 14.7573 36.7552 15.1747 36.7497H33.5753C34.4158 36.7452 35.2206 36.4093 35.815 35.815C36.4093 35.2206 36.7452 34.4159 36.7497 33.5753V15.1747C36.7553 14.7573 36.6753 14.3433 36.5147 13.958C36.354 13.5728 36.1161 13.2246 35.8157 12.9348ZM20.8869 20.9187C21.3475 20.4618 21.8949 20.1017 22.4968 19.8596C23.0987 19.6175 23.743 19.4983 24.3917 19.509C25.0429 19.4973 25.69 19.6161 26.2947 19.8583C26.8993 20.1004 27.4494 20.4612 27.9126 20.9192C28.3735 21.3591 28.7403 21.888 28.991 22.4737C29.2417 23.0595 29.3709 23.69 29.3709 24.3271C29.3709 24.9643 29.2417 25.5948 28.991 26.1805C28.7403 26.7663 28.3735 27.2951 27.9126 27.735C27.4495 28.1931 26.8994 28.5539 26.2947 28.7961C25.69 29.0383 25.043 29.157 24.3917 29.1452C23.743 29.1558 23.0987 29.0365 22.4968 28.7944C21.8949 28.5522 21.3475 28.192 20.8869 27.735C20.4259 27.2951 20.0589 26.7663 19.8081 26.1805C19.5574 25.5947 19.4281 24.9641 19.4281 24.3269C19.4281 23.6896 19.5574 23.059 19.8081 22.4732C20.0589 21.8874 20.4259 21.3586 20.8869 20.9187ZM33.9466 32.9168C33.9495 33.0471 33.9252 33.1766 33.8753 33.2971C33.8253 33.4175 33.7509 33.5262 33.6566 33.6162C33.5658 33.7072 33.4577 33.7791 33.3387 33.8275C33.2196 33.8759 33.0921 33.9 32.9636 33.8982H15.7385C15.6087 33.9008 15.4797 33.8772 15.3592 33.8287C15.2388 33.7802 15.1294 33.7079 15.0376 33.6161C14.9458 33.5243 14.8734 33.4149 14.825 33.2945C14.7765 33.174 14.7529 33.045 14.7555 32.9152V22.4736H17.0271C16.8112 23.1563 16.7023 23.8683 16.7043 24.5843C16.6908 25.573 16.8846 26.5536 17.2734 27.4628C17.6621 28.372 18.2372 29.1896 18.9613 29.8629C19.6749 30.571 20.523 31.1289 21.4557 31.5039C22.3883 31.8789 23.3866 32.0633 24.3917 32.0463C25.746 32.0568 27.0795 31.7121 28.259 31.0466C29.4163 30.4039 30.3834 29.4673 31.0627 28.3312C31.7463 27.2018 32.1033 25.905 32.0941 24.5848C32.096 23.8688 31.9872 23.1568 31.7713 22.4741H33.9466V32.9152V32.9168ZM33.9466 18.5277C33.9482 18.6742 33.9205 18.8195 33.8652 18.9552C33.8098 19.0909 33.728 19.2141 33.6244 19.3178C33.5208 19.4214 33.3976 19.5033 33.262 19.5587C33.1263 19.6141 32.981 19.6418 32.8345 19.6403H30.0313C29.8849 19.6418 29.7397 19.6141 29.6042 19.5588C29.4686 19.5035 29.3455 19.4216 29.242 19.3181C29.1384 19.2146 29.0566 19.0915 29.0013 18.9559C28.946 18.8204 28.9182 18.6751 28.9198 18.5288V15.8676C28.9183 15.7223 28.9461 15.5782 29.0016 15.4439C29.0571 15.3096 29.139 15.1878 29.2426 15.0859C29.344 14.979 29.4665 14.8945 29.6024 14.8376C29.7383 14.7807 29.8846 14.7528 30.0319 14.7555H32.8355C32.9829 14.7527 33.1293 14.7806 33.2653 14.8375C33.4013 14.8943 33.5239 14.979 33.6254 15.0859C33.729 15.1878 33.811 15.3096 33.8664 15.4439C33.9219 15.5782 33.9497 15.7223 33.9482 15.8676V18.5261L33.9466 18.5277Z" fill="currentColor"/>
    </symbol>

    <symbol id="icon-tch" class="icon icon--socials" viewBox="0 0 48 48">
        <path d="M18.1978 36.4825V33.433H12.015C12.0089 33.3055 12 33.2062 12 33.1075C12 27.3708 12.0009 21.6341 12.0028 15.8973C12.0036 15.7278 12.0311 15.5594 12.0842 15.3983C12.5396 14.0161 13.0071 12.6355 13.4614 11.2499C13.467 11.2119 13.48 11.1753 13.4998 11.1423C13.5195 11.1093 13.5456 11.0805 13.5765 11.0576C13.6073 11.0347 13.6424 11.0181 13.6797 11.0088C13.717 10.9994 13.7557 10.9975 13.7937 11.0032C21.3598 11.0091 28.9256 11.0108 36.4913 11.0082H36.745V11.3292C36.745 16.2734 36.7465 21.2177 36.7495 26.1619C36.7533 26.2542 36.7368 26.3463 36.7012 26.4315C36.6655 26.5168 36.6117 26.5932 36.5434 26.6554C34.3486 28.8395 32.1573 31.028 29.9695 33.2206C29.9072 33.289 29.8307 33.3428 29.7453 33.3782C29.6599 33.4135 29.5677 33.4296 29.4754 33.4252C28.1458 33.4158 26.8119 33.4252 25.4802 33.4152C25.365 33.4081 25.2497 33.4268 25.1426 33.47C25.0356 33.5132 24.9395 33.5797 24.8614 33.6647C23.9828 34.5618 23.0915 35.4462 22.1974 36.3261C22.1093 36.4185 21.9917 36.4774 21.865 36.4924C20.6751 36.5041 19.483 36.4991 18.2947 36.498C18.262 36.4952 18.2296 36.49 18.1978 36.4825ZM15.8434 13.3031V29.5851H21.2723V32.6712C21.3565 32.5913 21.403 32.5486 21.4484 32.5048C22.3647 31.5922 23.2826 30.6812 24.1933 29.7631C24.2493 29.7019 24.318 29.6538 24.3946 29.6221C24.4711 29.5904 24.5537 29.5759 24.6365 29.5795C26.5347 29.5858 28.4332 29.5845 30.3318 29.5757C30.485 29.5691 30.6309 29.5086 30.7439 29.4049C31.9272 28.2405 33.0977 27.0596 34.2782 25.8908C34.3388 25.8345 34.3864 25.7656 34.4175 25.689C34.4486 25.6124 34.4625 25.5298 34.4583 25.4472C34.4572 21.4929 34.4566 17.5391 34.4566 13.5858V13.3031H15.8434ZM24.3639 17.9937V24.8756H22.0672V17.9937H24.3628H24.3639ZM30.539 24.8844H28.2843V17.9932H30.539V24.8844Z" fill="currentColor"/>
    </symbol>

    <symbol id="icon-yt" class="icon icon--socials" viewBox="0 0 38.417 18.592" style="enable-background:new 0 0 38.417 18.592;">
        <path d="M33.886 24.1728C33.7719 23.6334 33.5007 23.1442 33.1096 22.7722C32.7185 22.4003 32.2267 22.164 31.7019 22.0957C30.0276 21.9062 27.5021 21.8114 24.1255 21.8114C20.7489 21.8114 18.228 21.9062 16.5629 22.0957C16.0383 22.1568 15.546 22.3911 15.1578 22.7646C14.7607 23.1373 14.4838 23.6292 14.365 24.1728C14.0853 25.8159 13.9664 27.4844 14.01 29.1526C13.9629 30.8209 14.0819 32.4898 14.365 34.1325C14.4755 34.6776 14.7508 35.1713 15.1504 35.5406C15.5366 35.9113 16.0276 36.141 16.5496 36.1951C19.0683 36.4309 21.597 36.53 24.1255 36.4922C26.654 36.5295 29.1827 36.4298 31.7013 36.1935C32.2212 36.1403 32.71 35.9108 33.0932 35.5401C33.49 35.1674 33.7666 34.6754 33.8849 34.1319C34.1646 32.4888 34.2836 30.8203 34.2399 29.1521C34.2872 27.484 34.1685 25.8153 33.886 24.1728ZM19.7849 25.6098H18.3241V33.7052H16.9593V25.6098H15.5266V24.2725H19.7849V25.6098ZM23.4707 33.7046H22.2555V32.9366C22.0944 33.1747 21.8872 33.375 21.6474 33.5245C21.4075 33.674 21.1404 33.7693 20.8632 33.8044C20.6931 33.8267 20.521 33.7863 20.3764 33.6902C20.2319 33.5941 20.124 33.4483 20.0714 33.2779C19.9857 32.9394 19.9489 32.5893 19.9621 32.2394V26.6766H21.1773V31.8554C21.1717 32.0217 21.1763 32.1883 21.1911 32.3541C21.1901 32.3937 21.1968 32.433 21.2108 32.4698C21.2249 32.5066 21.2459 32.54 21.2728 32.5679C21.2996 32.5959 21.3316 32.6178 21.3668 32.6324C21.402 32.647 21.4397 32.654 21.4776 32.6528C21.6426 32.6225 21.7986 32.5529 21.9336 32.4492C22.0685 32.3456 22.1787 32.2108 22.2555 32.0554V26.6799H23.4707V33.7052V33.7046ZM28.1116 31.5988C28.1332 32.0768 28.0919 32.5556 27.989 33.0219C27.9427 33.2512 27.8197 33.4558 27.642 33.5991C27.4644 33.7424 27.2437 33.815 27.0196 33.8038C26.7653 33.7815 26.519 33.6997 26.2992 33.5643C26.0793 33.4289 25.8915 33.2435 25.7498 33.0219V33.7046H24.5357V24.2725H25.7503V27.3599C25.8906 27.1379 26.0783 26.953 26.2986 26.8198C26.519 26.6865 26.766 26.6084 27.0201 26.5918C27.2462 26.5819 27.4682 26.6568 27.646 26.8029C27.8238 26.9491 27.9457 27.1569 27.9896 27.3887C28.0933 27.85 28.1346 28.3242 28.1121 28.7974V31.5999L28.1116 31.5988ZM32.7281 30.435H30.2808V31.6708C30.2808 32.3251 30.4901 32.6523 30.9086 32.6523C31.0459 32.6591 31.1802 32.6091 31.2824 32.5131C31.3847 32.4171 31.4465 32.2829 31.4546 32.1396C31.4809 31.8512 31.4901 31.5614 31.4822 31.2718H32.7244V31.4569C32.7327 31.7323 32.7237 32.0079 32.6973 32.2821C32.6629 32.5586 32.5646 32.8222 32.4108 33.0502C32.2484 33.2982 32.0271 33.4981 31.7687 33.6303C31.5103 33.7625 31.2234 33.8225 30.9362 33.8044C30.6526 33.8171 30.3703 33.7577 30.1136 33.6314C29.8568 33.505 29.6332 33.3155 29.4621 33.079C29.1613 32.5887 29.0223 32.0091 29.0662 31.4286V28.9675C29.0231 28.3891 29.1569 27.8112 29.4483 27.3172C29.6235 27.0907 29.845 26.9079 30.0965 26.7824C30.3481 26.6569 30.6234 26.5917 30.9022 26.5917C31.181 26.5917 31.4563 26.6569 31.7079 26.7824C31.9595 26.9079 32.181 27.0907 32.3561 27.3172C32.6384 27.8147 32.7671 28.3909 32.7249 28.9675V30.4333L32.7281 30.435ZM26.3642 27.7439C26.247 27.7505 26.1322 27.7816 26.0266 27.8354C25.9211 27.8892 25.8269 27.9646 25.7498 28.057V32.3392C25.8269 32.4316 25.921 32.507 26.0266 32.5608C26.1321 32.6146 26.247 32.6457 26.3642 32.6523C26.718 32.6523 26.8949 32.3345 26.8949 31.6991V28.6971C26.8963 28.0616 26.7194 27.7439 26.3642 27.7439ZM30.8964 27.7439C30.4867 27.7439 30.2821 28.0663 30.2824 28.711V29.3654H31.5108V28.7115C31.5108 28.0664 31.306 27.7439 30.8964 27.7439ZM18.9932 16.6753V20.5319H20.358V16.6753L22.0099 11H20.6175L19.6894 14.7407L18.7205 11H17.2734C17.5281 11.7969 17.8239 12.6836 18.1606 13.6601C18.5007 14.6452 18.7788 15.6524 18.9932 16.6753ZM23.8389 20.6305C24.1189 20.6452 24.398 20.5866 24.6508 20.4599C24.9035 20.3332 25.1219 20.1425 25.286 19.9051C25.5794 19.4015 25.7131 18.8141 25.668 18.2265V15.7366C25.7117 15.1542 25.578 14.5723 25.286 14.074C25.1221 13.8362 24.9038 13.6451 24.6511 13.518C24.3983 13.3909 24.1191 13.3319 23.8389 13.3464C23.5614 13.335 23.2855 13.3952 23.0356 13.5217C22.7857 13.6483 22.5695 13.8372 22.4062 14.0718C22.1143 14.5701 21.9805 15.152 22.0242 15.7343V18.2243C21.9817 18.8116 22.1152 19.3983 22.4062 19.9029C22.5693 20.1379 22.7854 20.3272 23.0353 20.4542C23.2852 20.5811 23.5613 20.6417 23.8389 20.6305ZM23.2521 15.48C23.2521 14.8257 23.4477 14.4985 23.8389 14.4985C24.2302 14.4985 24.4258 14.8257 24.4258 15.48V18.4675C24.4258 19.1326 24.2302 19.4651 23.8389 19.4651C23.4477 19.4651 23.2521 19.1326 23.2521 18.4675V15.48ZM27.5932 20.6305C27.8746 20.598 28.146 20.5024 28.3887 20.3501C28.6314 20.1978 28.8398 19.9925 28.9994 19.7482V20.5319H30.2416V13.4317H28.9988V18.8521C28.9233 19.0099 28.8137 19.1471 28.6785 19.2529C28.5434 19.3588 28.3866 19.4302 28.2204 19.4617C28.1816 19.462 28.1431 19.454 28.1073 19.4382C28.0715 19.4224 28.0392 19.3991 28.0124 19.3698C27.9856 19.3404 27.9648 19.3057 27.9513 19.2677C27.9377 19.2296 27.9318 19.1891 27.9338 19.1486C27.9185 18.9829 27.9139 18.8163 27.9201 18.6499V13.4317H26.6784V19.0356C26.6642 19.3949 26.7011 19.7543 26.7877 20.1024C26.8443 20.2729 26.9549 20.4182 27.1012 20.5143C27.2476 20.6103 27.421 20.6513 27.5927 20.6305H27.5932Z" fill="currentColor"/>
    </symbol>

    <symbol id="icon-1" viewBox="0 0 160 90">
        <path d="M6.35388 46.075C6.19763 45.8842 6.05746 45.7104 5.9334 45.5546C6.08294 45.386 6.25391 45.1955 6.44607 44.9845C7.31029 44.0352 8.60244 42.6718 10.3 41.032C13.6962 37.7513 18.7082 33.3712 25.1555 28.9907C38.0563 20.2256 56.6409 11.5 79.5 11.5C103.873 11.5 122.454 20.2359 134.953 28.9791C141.204 33.3519 145.928 37.723 149.085 40.9946C150.662 42.6299 151.847 43.989 152.633 44.934C152.84 45.1823 153.019 45.402 153.17 45.5905C153.057 45.7617 152.926 45.9572 152.776 46.1751C152.132 47.1106 151.145 48.4597 149.786 50.085C147.07 53.3361 142.873 57.6876 136.983 62.044C125.218 70.7453 106.651 79.5 79.5 79.5C54.8747 79.5 36.295 70.7624 23.8626 62.0229C17.6442 57.6515 12.9679 53.282 9.85147 50.012C8.2937 48.3775 7.12711 47.0192 6.35388 46.075Z" stroke="white" stroke-width="3"/>
        <circle cx="81" cy="45" r="24.5" stroke="white" stroke-width="3"/>
        <circle cx="81" cy="45" r="21.5" stroke="#77B900" stroke-width="3"/>
        <circle cx="81" cy="45" r="9.5" stroke="#77B900" stroke-width="5"/>
        <circle cx="100" cy="32" r="7" fill="white"/>
    </symbol>

    <symbol id="icon-2" viewBox="0 0 160 90">
        <path d="M6.35388 46.075C6.19763 45.8842 6.05746 45.7104 5.9334 45.5546C6.08294 45.386 6.25391 45.1955 6.44607 44.9845C7.31029 44.0352 8.60244 42.6718 10.3 41.032C13.6962 37.7513 18.7082 33.3712 25.1555 28.9907C38.0563 20.2256 56.6409 11.5 79.5 11.5C103.873 11.5 122.454 20.2359 134.953 28.9791C141.204 33.3519 145.928 37.723 149.085 40.9946C150.662 42.6299 151.847 43.989 152.633 44.934C152.84 45.1823 153.019 45.402 153.17 45.5905C153.057 45.7617 152.926 45.9572 152.776 46.1751C152.132 47.1106 151.145 48.4597 149.786 50.085C147.07 53.3361 142.873 57.6876 136.983 62.044C125.218 70.7453 106.651 79.5 79.5 79.5C54.8747 79.5 36.295 70.7624 23.8626 62.0229C17.6442 57.6515 12.9679 53.282 9.85147 50.012C8.2937 48.3775 7.12711 47.0192 6.35388 46.075Z" stroke="white" stroke-width="3"/>
        <circle cx="81" cy="45" r="24.5" stroke="white" stroke-width="3"/>
        <circle cx="81" cy="45" r="21.5" stroke="#77B900" stroke-width="3"/>
        <path d="M81 28.5V45H94" stroke="#77B900" stroke-width="4" stroke-linecap="round" stroke-linejoin="round"/>
    </symbol>

    <symbol id="icon-3" viewBox="0 0 160 90">
        <path d="M6.35388 46.075C6.19763 45.8842 6.05746 45.7104 5.9334 45.5546C6.08294 45.386 6.25391 45.1955 6.44607 44.9845C7.31029 44.0352 8.60244 42.6718 10.3 41.032C13.6962 37.7513 18.7082 33.3712 25.1555 28.9907C38.0563 20.2256 56.6409 11.5 79.5 11.5C103.873 11.5 122.454 20.2359 134.953 28.9791C141.204 33.3519 145.928 37.723 149.085 40.9946C150.662 42.6299 151.847 43.989 152.633 44.934C152.84 45.1823 153.019 45.402 153.17 45.5905C153.057 45.7617 152.926 45.9572 152.776 46.1751C152.132 47.1106 151.145 48.4597 149.786 50.085C147.07 53.3361 142.873 57.6876 136.983 62.044C125.218 70.7453 106.651 79.5 79.5 79.5C54.8747 79.5 36.295 70.7624 23.8626 62.0229C17.6442 57.6515 12.9679 53.282 9.85147 50.012C8.2937 48.3775 7.12711 47.0192 6.35388 46.075Z" stroke="white" stroke-width="3"/>
        <path d="M115.967 41.7183C114.915 29.459 105.088 19.7243 92.7893 18.7945C100.688 23.0493 106.058 31.3922 106.058 40.9915C106.058 41.2377 106.027 41.4745 106.02 41.7183H97.9286L110.419 57.7938L123.91 41.7183H115.967Z" fill="white"/>
        <path d="M54.6808 51.0085C54.6808 50.7355 54.7112 50.4707 54.7205 50.2012H63.0713L50.5823 34.1257L37.0898 50.2012H44.7653C45.7827 62.4978 55.6235 72.2757 67.947 73.2067C60.0498 68.9495 54.6808 60.6078 54.6808 51.0085Z" fill="white"/>
        <path d="M88 30H71V47H76L74.5 65.25L90 44H78L88 30Z" fill="#77B900"/>
    </symbol>

    <symbol id="icon-4" viewBox="0 0 160 90">
        <path d="M6.35388 46.075C6.19763 45.8842 6.05746 45.7104 5.9334 45.5546C6.08294 45.386 6.25391 45.1955 6.44607 44.9845C7.31029 44.0352 8.60244 42.6718 10.3 41.032C13.6962 37.7513 18.7082 33.3712 25.1555 28.9907C38.0563 20.2256 56.6409 11.5 79.5 11.5C103.873 11.5 122.454 20.2359 134.953 28.9791C141.204 33.3519 145.928 37.723 149.085 40.9946C150.662 42.6299 151.847 43.989 152.633 44.934C152.84 45.1823 153.019 45.402 153.17 45.5905C153.057 45.7617 152.926 45.9572 152.776 46.1751C152.132 47.1106 151.145 48.4597 149.786 50.085C147.07 53.3361 142.873 57.6876 136.983 62.044C125.218 70.7453 106.651 79.5 79.5 79.5C54.8747 79.5 36.295 70.7624 23.8626 62.0229C17.6442 57.6515 12.9679 53.282 9.85147 50.012C8.2937 48.3775 7.12711 47.0192 6.35388 46.075Z" stroke="white" stroke-width="3"/>
        <circle cx="79.5" cy="37.5" r="11.5" fill="#77B900" fill-opacity="0.75" stroke="white" stroke-width="2"/>
        <circle cx="70.5" cy="52.5" r="11.5" fill="#77B900" fill-opacity="0.5" stroke="white" stroke-width="2"/>
        <circle cx="88.5" cy="52.5" r="11.5" fill="white" fill-opacity="0.45" stroke="white" stroke-width="2"/>
    </symbol>

    <symbol id="icon-logo" viewBox="0 0 45 34">
        <g clip-path="url(#clip0)">
            <path d="M44.686 32.9242C44.686 33.4197 44.3314 33.7522 43.9117 33.7522V33.7492C43.4801 33.7522 43.1321 33.4197 43.1321 32.9244C43.1321 32.4292 43.4801 32.0976 43.9117 32.0976C44.3316 32.0974 44.686 32.4291 44.686 32.9242ZM45.0001 32.9242C45.0001 32.2443 44.4853 31.8497 43.9117 31.8497C43.3342 31.8497 42.8195 32.2443 42.8195 32.9242C42.8195 33.6037 43.3343 34 43.9117 34C44.4855 34 45.0001 33.6037 45.0001 32.9242ZM43.7312 33.0152H43.8477L44.1178 33.5017H44.4143L44.1152 32.9947C44.2697 32.9834 44.3969 32.9078 44.3969 32.6943C44.3969 32.4291 44.2186 32.3438 43.9167 32.3438H43.48V33.5017H43.7311V33.0152H43.7312ZM43.7312 32.8191V32.5403H43.9059C44.0009 32.5403 44.1303 32.5482 44.1303 32.6671C44.1303 32.7965 44.0633 32.8191 43.9513 32.8191H43.7312Z" fill="white"/>
            <path d="M37.6709 27.0012L39.0278 30.8104H36.272L37.6709 27.0012ZM36.2177 25.518L33.0906 33.648H35.2987L35.7934 32.2115H39.494L39.9621 33.648H42.3592L39.2089 25.517L36.2177 25.518ZM29.9396 33.651H32.1799V25.5155L29.9392 25.515L29.9396 33.651ZM14.3873 25.515L12.5182 31.963L10.7277 25.5155L8.31052 25.515L10.8677 33.651H14.0951L16.6729 25.515H14.3873ZM23.4427 27.2866H24.4056C25.8025 27.2866 26.7059 27.9301 26.7059 29.6001C26.7059 31.2705 25.8025 31.9142 24.4056 31.9142H23.4427V27.2866ZM21.2213 25.515V33.651H24.8532C26.7882 33.651 27.4201 33.321 28.1033 32.5805C28.5859 32.0607 28.898 30.9197 28.898 29.6725C28.898 28.5286 28.6339 27.5089 28.1733 26.8735C27.3435 25.7372 26.1482 25.515 24.3642 25.515H21.2213ZM0 25.5037V33.651H2.25922V27.4647L4.00974 27.4653C4.58937 27.4653 5.00255 27.6135 5.28167 27.9195C5.63569 28.3064 5.78025 28.931 5.78025 30.0735V33.651H7.96943V29.1496C7.96943 25.9369 5.97384 25.5037 4.02127 25.5037H0ZM17.6158 25.515L17.6167 33.651H19.8559V25.515H17.6158Z" fill="white"/>
            <path d="M6.02064 9.31533C6.02064 9.31533 8.90199 4.95301 14.6551 4.50171V2.91907C8.2828 3.44421 2.76465 8.98227 2.76465 8.98227C2.76465 8.98227 5.89004 18.2533 14.6551 19.1022V17.42C8.22288 16.5896 6.02064 9.31533 6.02064 9.31533ZM14.6551 14.0744V15.615C9.79377 14.7257 8.44438 9.54026 8.44438 9.54026C8.44438 9.54026 10.7785 6.88698 14.6551 6.4567V8.1472C14.6521 8.1472 14.6501 8.14628 14.6477 8.14628C12.613 7.89574 11.0236 9.84612 11.0236 9.84612C11.0236 9.84612 11.9145 13.1295 14.6551 14.0744ZM14.6551 0V2.91907C14.8422 2.90436 15.0292 2.89188 15.2173 2.88531C22.4619 2.63476 27.1823 8.98227 27.1823 8.98227C27.1823 8.98227 21.7608 15.7469 16.1125 15.7469C15.5949 15.7469 15.1103 15.6977 14.6551 15.6149V17.42C15.0443 17.4707 15.4479 17.5005 15.869 17.5005C21.1251 17.5005 24.9261 14.7461 28.6067 11.486C29.2169 11.9875 31.7152 13.2076 32.2287 13.7416C28.7292 16.7481 20.5734 19.1716 15.9495 19.1716C15.5039 19.1716 15.0758 19.1438 14.6551 19.1022V21.6387H34.633V0H14.6551ZM14.6551 6.4567V4.50184C14.8402 4.48858 15.0268 4.47833 15.2173 4.47215C20.4269 4.30424 23.8447 9.06597 23.8447 9.06597C23.8447 9.06597 20.1531 14.3269 16.195 14.3269C15.6254 14.3269 15.1146 14.233 14.655 14.0744V8.1472C16.6831 8.39867 17.0913 9.31796 18.3106 11.4037L21.0224 9.05729C21.0224 9.05729 19.0428 6.39324 15.7058 6.39324C15.343 6.39311 14.9959 6.41925 14.6551 6.4567Z" fill="#77B900"/>
        </g>
        <defs>
            <clipPath id="clip0">
                <rect width="45" height="34" fill="white"/>
            </clipPath>
        </defs>
    </symbol>
</svg>
